<?xml version="1.0" encoding="us-ascii" standalone="no"?><svg xmlns="http://www.w3.org/2000/svg" xmlns:xlink="http://www.w3.org/1999/xlink" contentStyleType="text/css" height="1671px" preserveAspectRatio="none" style="width:1322px;height:1671px;background:#FFFFFF;" version="1.1" viewBox="0 0 1322 1671" width="1322px" zoomAndPan="magnify"><defs/><g><rect fill="none" height="101.9316" style="stroke:#000000;stroke-width:1.5;" width="430" x="759" y="471.2832"/><rect fill="none" height="118.8867" style="stroke:#000000;stroke-width:1.5;" width="909" x="10" y="644.5254"/><rect fill="none" height="112.8418" style="stroke:#000000;stroke-width:1.5;" width="430" x="759" y="1147.207"/><line style="stroke:#181818;stroke-width:0.5;stroke-dasharray:5.0,5.0;" x1="44" x2="44" y1="81.4883" y2="1590.2227"/><line style="stroke:#181818;stroke-width:0.5;stroke-dasharray:5.0,5.0;" x1="414.5" x2="414.5" y1="81.4883" y2="1590.2227"/><line style="stroke:#181818;stroke-width:0.5;stroke-dasharray:5.0,5.0;" x1="493.5" x2="493.5" y1="81.4883" y2="1590.2227"/><line style="stroke:#181818;stroke-width:0.5;stroke-dasharray:5.0,5.0;" x1="839" x2="839" y1="81.4883" y2="1590.2227"/><line style="stroke:#181818;stroke-width:0.5;stroke-dasharray:5.0,5.0;" x1="1242" x2="1242" y1="81.4883" y2="1590.2227"/><text fill="#000000" font-family="sans-serif" font-size="14" lengthAdjust="spacing" textLength="42" x="20" y="78.5352">Alice1</text><ellipse cx="44" cy="13.5" fill="#E2E2F0" rx="8" ry="8" style="stroke:#181818;stroke-width:0.5;"/><path d="M44,21.5 L44,48.5 M31,29.5 L57,29.5 M44,48.5 L31,63.5 M44,48.5 L57,63.5 " fill="none" style="stroke:#181818;stroke-width:0.5;"/><text fill="#000000" font-family="sans-serif" font-size="14" lengthAdjust="spacing" textLength="42" x="20" y="1602.7578">Alice1</text><ellipse cx="44" cy="1614.2109" fill="#E2E2F0" rx="8" ry="8" style="stroke:#181818;stroke-width:0.5;"/><path d="M44,1622.2109 L44,1649.2109 M31,1630.2109 L57,1630.2109 M44,1649.2109 L31,1664.2109 M44,1649.2109 L57,1664.2109 " fill="none" style="stroke:#181818;stroke-width:0.5;"/><text fill="#000000" font-family="sans-serif" font-size="14" lengthAdjust="spacing" textLength="99" x="362.5" y="78.5352">Alice2/Relayer</text><ellipse cx="415" cy="13.5" fill="#E2E2F0" rx="8" ry="8" style="stroke:#181818;stroke-width:0.5;"/><path d="M415,21.5 L415,48.5 M402,29.5 L428,29.5 M415,48.5 L402,63.5 M415,48.5 L428,63.5 " fill="none" style="stroke:#181818;stroke-width:0.5;"/><text fill="#000000" font-family="sans-serif" font-size="14" lengthAdjust="spacing" textLength="99" x="362.5" y="1602.7578">Alice2/Relayer</text><ellipse cx="415" cy="1614.2109" fill="#E2E2F0" rx="8" ry="8" style="stroke:#181818;stroke-width:0.5;"/><path d="M415,1622.2109 L415,1649.2109 M402,1630.2109 L428,1630.2109 M415,1649.2109 L402,1664.2109 M415,1649.2109 L428,1664.2109 " fill="none" style="stroke:#181818;stroke-width:0.5;"/><text fill="#000000" font-family="sans-serif" font-size="14" lengthAdjust="spacing" textLength="26" x="477.5" y="78.5352">Bob</text><ellipse cx="493.5" cy="13.5" fill="#E2E2F0" rx="8" ry="8" style="stroke:#181818;stroke-width:0.5;"/><path d="M493.5,21.5 L493.5,48.5 M480.5,29.5 L506.5,29.5 M493.5,48.5 L480.5,63.5 M493.5,48.5 L506.5,63.5 " fill="none" style="stroke:#181818;stroke-width:0.5;"/><text fill="#000000" font-family="sans-serif" font-size="14" lengthAdjust="spacing" textLength="26" x="477.5" y="1602.7578">Bob</text><ellipse cx="493.5" cy="1614.2109" fill="#E2E2F0" rx="8" ry="8" style="stroke:#181818;stroke-width:0.5;"/><path d="M493.5,1622.2109 L493.5,1649.2109 M480.5,1630.2109 L506.5,1630.2109 M493.5,1649.2109 L480.5,1664.2109 M493.5,1649.2109 L506.5,1664.2109 " fill="none" style="stroke:#181818;stroke-width:0.5;"/><rect fill="#E2E2F0" height="30.4883" rx="2.5" ry="2.5" style="stroke:#181818;stroke-width:0.5;" width="140" x="769" y="50"/><text fill="#000000" font-family="sans-serif" font-size="14" lengthAdjust="spacing" textLength="126" x="776" y="70.5352">ZWToken Contract</text><rect fill="#E2E2F0" height="30.4883" rx="2.5" ry="2.5" style="stroke:#181818;stroke-width:0.5;" width="140" x="769" y="1589.2227"/><text fill="#000000" font-family="sans-serif" font-size="14" lengthAdjust="spacing" textLength="126" x="776" y="1609.7578">ZWToken Contract</text><rect fill="#E2E2F0" height="30.4883" rx="2.5" ry="2.5" style="stroke:#181818;stroke-width:0.5;" width="136" x="1174" y="50"/><text fill="#000000" font-family="sans-serif" font-size="14" lengthAdjust="spacing" textLength="122" x="1181" y="70.5352">Underlying Token</text><rect fill="#E2E2F0" height="30.4883" rx="2.5" ry="2.5" style="stroke:#181818;stroke-width:0.5;" width="136" x="1174" y="1589.2227"/><text fill="#000000" font-family="sans-serif" font-size="14" lengthAdjust="spacing" textLength="122" x="1181" y="1609.7578">Underlying Token</text><rect fill="#EEEEEE" height="3" style="stroke:#EEEEEE;stroke-width:1.0;" width="1315" x="0" y="112.1436"/><line style="stroke:#000000;stroke-width:1.0;" x1="0" x2="1315" y1="112.1436" y2="112.1436"/><line style="stroke:#000000;stroke-width:1.0;" x1="0" x2="1315" y1="115.1436" y2="115.1436"/><rect fill="#EEEEEE" height="23.3105" style="stroke:#000000;stroke-width:2.0;" width="248" x="533.5" y="101.4883"/><text fill="#000000" font-family="sans-serif" font-size="13" font-weight="bold" lengthAdjust="spacing" textLength="230" x="539.5" y="118.0566">Alice1 Wraps Token into ZWToken</text><polygon fill="#181818" points="1230,152.1094,1240,156.1094,1230,160.1094,1234,156.1094" style="stroke:#181818;stroke-width:1.0;"/><line style="stroke:#181818;stroke-width:1.0;" x1="44" x2="1236" y1="156.1094" y2="156.1094"/><text fill="#000000" font-family="sans-serif" font-size="13" lengthAdjust="spacing" textLength="301" x="51" y="151.3672">underlying.approve(ZWToken Contract, amount)</text><polygon fill="#181818" points="55,166.1094,45,170.1094,55,174.1094,51,170.1094" style="stroke:#181818;stroke-width:1.0;"/><line style="stroke:#181818;stroke-width:1.0;stroke-dasharray:2.0,2.0;" x1="49" x2="1241" y1="170.1094" y2="170.1094"/><polygon fill="#181818" points="827,195.4199,837,199.4199,827,203.4199,831,199.4199" style="stroke:#181818;stroke-width:1.0;"/><line style="stroke:#181818;stroke-width:1.0;" x1="44" x2="833" y1="199.4199" y2="199.4199"/><text fill="#000000" font-family="sans-serif" font-size="13" lengthAdjust="spacing" textLength="165" x="51" y="194.6777">ZWToken.deposit(amount)</text><polygon fill="#181818" points="1230,224.7305,1240,228.7305,1230,232.7305,1234,228.7305" style="stroke:#181818;stroke-width:1.0;"/><line style="stroke:#181818;stroke-width:1.0;" x1="839" x2="1236" y1="228.7305" y2="228.7305"/><text fill="#000000" font-family="sans-serif" font-size="13" lengthAdjust="spacing" textLength="379" x="846" y="223.9883">underlying.transferFrom(Alice1, ZWToken Contract, amount)</text><polygon fill="#181818" points="850,238.7305,840,242.7305,850,246.7305,846,242.7305" style="stroke:#181818;stroke-width:1.0;"/><line style="stroke:#181818;stroke-width:1.0;stroke-dasharray:2.0,2.0;" x1="844" x2="1241" y1="242.7305" y2="242.7305"/><line style="stroke:#181818;stroke-width:1.0;" x1="839" x2="881" y1="272.041" y2="272.041"/><line style="stroke:#181818;stroke-width:1.0;" x1="881" x2="881" y1="272.041" y2="285.041"/><line style="stroke:#181818;stroke-width:1.0;" x1="840" x2="881" y1="285.041" y2="285.041"/><polygon fill="#181818" points="850,281.041,840,285.041,850,289.041,846,285.041" style="stroke:#181818;stroke-width:1.0;"/><text fill="#000000" font-family="sans-serif" font-size="13" lengthAdjust="spacing" textLength="207" x="846" y="267.2988">mint ZWToken(amount) to Alice1</text><line style="stroke:#181818;stroke-width:1.0;" x1="839" x2="881" y1="314.3516" y2="314.3516"/><line style="stroke:#181818;stroke-width:1.0;" x1="881" x2="881" y1="314.3516" y2="327.3516"/><line style="stroke:#181818;stroke-width:1.0;" x1="840" x2="881" y1="327.3516" y2="327.3516"/><polygon fill="#181818" points="850,323.3516,840,327.3516,850,331.3516,846,327.3516" style="stroke:#181818;stroke-width:1.0;"/><text fill="#000000" font-family="sans-serif" font-size="13" lengthAdjust="spacing" textLength="199" x="846" y="309.6094">emit Deposited(Alice1, amount)</text><polygon fill="#181818" points="55,337.3516,45,341.3516,55,345.3516,51,341.3516" style="stroke:#181818;stroke-width:1.0;"/><line style="stroke:#181818;stroke-width:1.0;stroke-dasharray:2.0,2.0;" x1="49" x2="838" y1="341.3516" y2="341.3516"/><rect fill="#EEEEEE" height="3" style="stroke:#EEEEEE;stroke-width:1.0;" width="1315" x="0" y="370.0068"/><line style="stroke:#000000;stroke-width:1.0;" x1="0" x2="1315" y1="370.0068" y2="370.0068"/><line style="stroke:#000000;stroke-width:1.0;" x1="0" x2="1315" y1="373.0068" y2="373.0068"/><rect fill="#EEEEEE" height="23.3105" style="stroke:#000000;stroke-width:2.0;" width="169" x="573" y="359.3516"/><text fill="#000000" font-family="sans-serif" font-size="13" font-weight="bold" lengthAdjust="spacing" textLength="151" x="579" y="375.9199">Alice1 Burns ZWToken</text><line style="stroke:#181818;stroke-width:1.0;" x1="44" x2="86" y1="413.9727" y2="413.9727"/><line style="stroke:#181818;stroke-width:1.0;" x1="86" x2="86" y1="413.9727" y2="426.9727"/><line style="stroke:#181818;stroke-width:1.0;" x1="45" x2="86" y1="426.9727" y2="426.9727"/><polygon fill="#181818" points="55,422.9727,45,426.9727,55,430.9727,51,426.9727" style="stroke:#181818;stroke-width:1.0;"/><text fill="#000000" font-family="sans-serif" font-size="13" lengthAdjust="spacing" textLength="357" x="51" y="409.2305">Generate provable burn address (e.g. Use poseidon hash)</text><polygon fill="#181818" points="827,452.2832,837,456.2832,827,460.2832,831,456.2832" style="stroke:#181818;stroke-width:1.0;"/><line style="stroke:#181818;stroke-width:1.0;" x1="44" x2="833" y1="456.2832" y2="456.2832"/><text fill="#000000" font-family="sans-serif" font-size="13" lengthAdjust="spacing" textLength="315" x="51" y="451.541">ZWToken.transfer(provable burn address, amount)</text><path d="M759,471.2832 L821,471.2832 L821,478.5938 L811,488.5938 L759,488.5938 L759,471.2832 " fill="#EEEEEE" style="stroke:#000000;stroke-width:1.5;"/><rect fill="none" height="101.9316" style="stroke:#000000;stroke-width:1.5;" width="430" x="759" y="471.2832"/><text fill="#000000" font-family="sans-serif" font-size="13" font-weight="bold" lengthAdjust="spacing" textLength="17" x="774" y="484.8516">alt</text><text fill="#000000" font-family="sans-serif" font-size="11" font-weight="bold" lengthAdjust="spacing" textLength="199" x="836" y="483.918">[Contract-maintained commitment]</text><line style="stroke:#181818;stroke-width:1.0;" x1="839" x2="881" y1="509.9043" y2="509.9043"/><line style="stroke:#181818;stroke-width:1.0;" x1="881" x2="881" y1="509.9043" y2="522.9043"/><line style="stroke:#181818;stroke-width:1.0;" x1="840" x2="881" y1="522.9043" y2="522.9043"/><polygon fill="#181818" points="850,518.9043,840,522.9043,850,526.9043,846,522.9043" style="stroke:#181818;stroke-width:1.0;"/><text fill="#000000" font-family="sans-serif" font-size="13" lengthAdjust="spacing" textLength="127" x="846" y="505.1621">update commitment</text><line style="stroke:#181818;stroke-width:1.0;" x1="839" x2="881" y1="552.2148" y2="552.2148"/><line style="stroke:#181818;stroke-width:1.0;" x1="881" x2="881" y1="552.2148" y2="565.2148"/><line style="stroke:#181818;stroke-width:1.0;" x1="840" x2="881" y1="565.2148" y2="565.2148"/><polygon fill="#181818" points="850,561.2148,840,565.2148,850,569.2148,846,565.2148" style="stroke:#181818;stroke-width:1.0;"/><text fill="#000000" font-family="sans-serif" font-size="13" lengthAdjust="spacing" textLength="331" x="846" y="547.4727">emit CommitmentUpdated(commitment, to, amount)</text><polygon fill="#181818" points="55,582.2148,45,586.2148,55,590.2148,51,586.2148" style="stroke:#181818;stroke-width:1.0;"/><line style="stroke:#181818;stroke-width:1.0;stroke-dasharray:2.0,2.0;" x1="49" x2="838" y1="586.2148" y2="586.2148"/><rect fill="#EEEEEE" height="3" style="stroke:#EEEEEE;stroke-width:1.0;" width="1315" x="0" y="614.8701"/><line style="stroke:#000000;stroke-width:1.0;" x1="0" x2="1315" y1="614.8701" y2="614.8701"/><line style="stroke:#000000;stroke-width:1.0;" x1="0" x2="1315" y1="617.8701" y2="617.8701"/><rect fill="#EEEEEE" height="23.3105" style="stroke:#000000;stroke-width:2.0;" width="445" x="435" y="604.2148"/><text fill="#000000" font-family="sans-serif" font-size="13" font-weight="bold" lengthAdjust="spacing" textLength="427" x="441" y="620.7832">Alice1 Generates Proof of Provable Burn Address for Reminting</text><path d="M10,644.5254 L72,644.5254 L72,651.8359 L62,661.8359 L10,661.8359 L10,644.5254 " fill="#EEEEEE" style="stroke:#000000;stroke-width:1.5;"/><rect fill="none" height="118.8867" style="stroke:#000000;stroke-width:1.5;" width="909" x="10" y="644.5254"/><text fill="#000000" font-family="sans-serif" font-size="13" font-weight="bold" lengthAdjust="spacing" textLength="17" x="25" y="658.0938">alt</text><text fill="#000000" font-family="sans-serif" font-size="11" font-weight="bold" lengthAdjust="spacing" textLength="199" x="87" y="657.1602">[Contract-maintained commitment]</text><polygon fill="#181818" points="827,679.1465,837,683.1465,827,687.1465,831,683.1465" style="stroke:#181818;stroke-width:1.0;"/><line style="stroke:#181818;stroke-width:1.0;" x1="44" x2="833" y1="683.1465" y2="683.1465"/><text fill="#000000" font-family="sans-serif" font-size="13" lengthAdjust="spacing" textLength="302" x="51" y="678.4043">fetch commit data / event CommitmentUpdated</text><polygon fill="#181818" points="55,693.1465,45,697.1465,55,701.1465,51,697.1465" style="stroke:#181818;stroke-width:1.0;"/><line style="stroke:#181818;stroke-width:1.0;stroke-dasharray:2.0,2.0;" x1="49" x2="838" y1="697.1465" y2="697.1465"/><line style="stroke:#000000;stroke-width:1.0;stroke-dasharray:2.0,2.0;" x1="10" x2="919" y1="706.1465" y2="706.1465"/><text fill="#000000" font-family="sans-serif" font-size="11" font-weight="bold" lengthAdjust="spacing" textLength="193" x="15" y="716.7813">[Protocol-level MPT commitment]</text><polygon fill="#181818" points="827,737.4121,837,741.4121,827,745.4121,831,741.4121" style="stroke:#181818;stroke-width:1.0;"/><line style="stroke:#181818;stroke-width:1.0;" x1="44" x2="833" y1="741.4121" y2="741.4121"/><text fill="#000000" font-family="sans-serif" font-size="13" lengthAdjust="spacing" textLength="80" x="51" y="736.6699">eth_getProof</text><polygon fill="#181818" points="55,751.4121,45,755.4121,55,759.4121,51,755.4121" style="stroke:#181818;stroke-width:1.0;"/><line style="stroke:#181818;stroke-width:1.0;stroke-dasharray:2.0,2.0;" x1="49" x2="838" y1="755.4121" y2="755.4121"/><line style="stroke:#181818;stroke-width:1.0;" x1="44" x2="86" y1="791.7227" y2="791.7227"/><line style="stroke:#181818;stroke-width:1.0;" x1="86" x2="86" y1="791.7227" y2="804.7227"/><line style="stroke:#181818;stroke-width:1.0;" x1="45" x2="86" y1="804.7227" y2="804.7227"/><polygon fill="#181818" points="55,800.7227,45,804.7227,55,808.7227,51,804.7227" style="stroke:#181818;stroke-width:1.0;"/><text fill="#000000" font-family="sans-serif" font-size="13" lengthAdjust="spacing" textLength="128" x="51" y="786.9805">rebuild commitment</text><line style="stroke:#181818;stroke-width:1.0;" x1="44" x2="86" y1="834.0332" y2="834.0332"/><line style="stroke:#181818;stroke-width:1.0;" x1="86" x2="86" y1="834.0332" y2="847.0332"/><line style="stroke:#181818;stroke-width:1.0;" x1="45" x2="86" y1="847.0332" y2="847.0332"/><polygon fill="#181818" points="55,843.0332,45,847.0332,55,851.0332,51,847.0332" style="stroke:#181818;stroke-width:1.0;"/><text fill="#000000" font-family="sans-serif" font-size="13" lengthAdjust="spacing" textLength="179" x="51" y="829.291">generate proof for reminting</text><rect fill="#EEEEEE" height="3" style="stroke:#EEEEEE;stroke-width:1.0;" width="1315" x="0" y="875.6885"/><line style="stroke:#000000;stroke-width:1.0;" x1="0" x2="1315" y1="875.6885" y2="875.6885"/><line style="stroke:#000000;stroke-width:1.0;" x1="0" x2="1315" y1="878.6885" y2="878.6885"/><rect fill="#EEEEEE" height="23.3105" style="stroke:#000000;stroke-width:2.0;" width="285" x="515" y="865.0332"/><text fill="#000000" font-family="sans-serif" font-size="13" font-weight="bold" lengthAdjust="spacing" textLength="271" x="521" y="881.6016">Alice2/Relayer Remints ZWToken to Bob</text><polygon fill="#181818" points="403,915.6543,413,919.6543,403,923.6543,407,919.6543" style="stroke:#181818;stroke-width:1.0;"/><line style="stroke:#181818;stroke-width:1.0;" x1="44" x2="409" y1="919.6543" y2="919.6543"/><text fill="#000000" font-family="sans-serif" font-size="13" lengthAdjust="spacing" textLength="172" x="51" y="914.9121">provide proof for reminting</text><polygon fill="#181818" points="55,929.6543,45,933.6543,55,937.6543,51,933.6543" style="stroke:#181818;stroke-width:1.0;"/><line style="stroke:#181818;stroke-width:1.0;stroke-dasharray:2.0,2.0;" x1="49" x2="414" y1="933.6543" y2="933.6543"/><polygon fill="#181818" points="827,958.9648,837,962.9648,827,966.9648,831,962.9648" style="stroke:#181818;stroke-width:1.0;"/><line style="stroke:#181818;stroke-width:1.0;" x1="415" x2="833" y1="962.9648" y2="962.9648"/><text fill="#000000" font-family="sans-serif" font-size="13" lengthAdjust="spacing" textLength="400" x="422" y="958.2227">ZWToken.remint(proof, commitment, nullifier, to=Bob, amount)</text><line style="stroke:#181818;stroke-width:1.0;" x1="839" x2="881" y1="992.2754" y2="992.2754"/><line style="stroke:#181818;stroke-width:1.0;" x1="881" x2="881" y1="992.2754" y2="1005.2754"/><line style="stroke:#181818;stroke-width:1.0;" x1="840" x2="881" y1="1005.2754" y2="1005.2754"/><polygon fill="#181818" points="850,1001.2754,840,1005.2754,850,1009.2754,846,1005.2754" style="stroke:#181818;stroke-width:1.0;"/><text fill="#000000" font-family="sans-serif" font-size="13" lengthAdjust="spacing" textLength="90" x="846" y="987.5332">check nullifier</text><line style="stroke:#181818;stroke-width:1.0;" x1="839" x2="881" y1="1034.5859" y2="1034.5859"/><line style="stroke:#181818;stroke-width:1.0;" x1="881" x2="881" y1="1034.5859" y2="1047.5859"/><line style="stroke:#181818;stroke-width:1.0;" x1="840" x2="881" y1="1047.5859" y2="1047.5859"/><polygon fill="#181818" points="850,1043.5859,840,1047.5859,850,1051.5859,846,1047.5859" style="stroke:#181818;stroke-width:1.0;"/><text fill="#000000" font-family="sans-serif" font-size="13" lengthAdjust="spacing" textLength="119" x="846" y="1029.8438">mark nullifier used</text><line style="stroke:#181818;stroke-width:1.0;" x1="839" x2="881" y1="1076.8965" y2="1076.8965"/><line style="stroke:#181818;stroke-width:1.0;" x1="881" x2="881" y1="1076.8965" y2="1089.8965"/><line style="stroke:#181818;stroke-width:1.0;" x1="840" x2="881" y1="1089.8965" y2="1089.8965"/><polygon fill="#181818" points="850,1085.8965,840,1089.8965,850,1093.8965,846,1089.8965" style="stroke:#181818;stroke-width:1.0;"/><text fill="#000000" font-family="sans-serif" font-size="13" lengthAdjust="spacing" textLength="93" x="846" y="1072.1543">verify ZK proof</text><line style="stroke:#181818;stroke-width:1.0;" x1="839" x2="881" y1="1119.207" y2="1119.207"/><line style="stroke:#181818;stroke-width:1.0;" x1="881" x2="881" y1="1119.207" y2="1132.207"/><line style="stroke:#181818;stroke-width:1.0;" x1="840" x2="881" y1="1132.207" y2="1132.207"/><polygon fill="#181818" points="850,1128.207,840,1132.207,850,1136.207,846,1132.207" style="stroke:#181818;stroke-width:1.0;"/><text fill="#000000" font-family="sans-serif" font-size="13" lengthAdjust="spacing" textLength="201" x="846" y="1114.4648">mint ZWToken(to=Bob, amount)</text><path d="M759,1147.207 L821,1147.207 L821,1154.5176 L811,1164.5176 L759,1164.5176 L759,1147.207 " fill="#EEEEEE" style="stroke:#000000;stroke-width:1.5;"/><rect fill="none" height="112.8418" style="stroke:#000000;stroke-width:1.5;" width="430" x="759" y="1147.207"/><text fill="#000000" font-family="sans-serif" font-size="13" font-weight="bold" lengthAdjust="spacing" textLength="17" x="774" y="1160.7754">alt</text><text fill="#000000" font-family="sans-serif" font-size="11" font-weight="bold" lengthAdjust="spacing" textLength="195" x="836" y="1159.8418">[Contract-maintained commitment</text><text fill="#000000" font-family="sans-serif" font-size="11" font-weight="bold" lengthAdjust="spacing" textLength="219" x="836" y="1172.7969">Bob might be a provable burn address]</text><line style="stroke:#181818;stroke-width:1.0;" x1="839" x2="881" y1="1196.7383" y2="1196.7383"/><line style="stroke:#181818;stroke-width:1.0;" x1="881" x2="881" y1="1196.7383" y2="1209.7383"/><line style="stroke:#181818;stroke-width:1.0;" x1="840" x2="881" y1="1209.7383" y2="1209.7383"/><polygon fill="#181818" points="850,1205.7383,840,1209.7383,850,1213.7383,846,1209.7383" style="stroke:#181818;stroke-width:1.0;"/><text fill="#000000" font-family="sans-serif" font-size="13" lengthAdjust="spacing" textLength="127" x="846" y="1191.9961">update commitment</text><line style="stroke:#181818;stroke-width:1.0;" x1="839" x2="881" y1="1239.0488" y2="1239.0488"/><line style="stroke:#181818;stroke-width:1.0;" x1="881" x2="881" y1="1239.0488" y2="1252.0488"/><line style="stroke:#181818;stroke-width:1.0;" x1="840" x2="881" y1="1252.0488" y2="1252.0488"/><polygon fill="#181818" points="850,1248.0488,840,1252.0488,850,1256.0488,846,1252.0488" style="stroke:#181818;stroke-width:1.0;"/><text fill="#000000" font-family="sans-serif" font-size="13" lengthAdjust="spacing" textLength="331" x="846" y="1234.3066">emit CommitmentUpdated(commitment, to, amount)</text><line style="stroke:#181818;stroke-width:1.0;" x1="839" x2="881" y1="1288.3594" y2="1288.3594"/><line style="stroke:#181818;stroke-width:1.0;" x1="881" x2="881" y1="1288.3594" y2="1301.3594"/><line style="stroke:#181818;stroke-width:1.0;" x1="840" x2="881" y1="1301.3594" y2="1301.3594"/><polygon fill="#181818" points="850,1297.3594,840,1301.3594,850,1305.3594,846,1301.3594" style="stroke:#181818;stroke-width:1.0;"/><text fill="#000000" font-family="sans-serif" font-size="13" lengthAdjust="spacing" textLength="191" x="846" y="1283.6172">mint ZWToken(amount) to Bob</text><line style="stroke:#181818;stroke-width:1.0;" x1="839" x2="881" y1="1330.6699" y2="1330.6699"/><line style="stroke:#181818;stroke-width:1.0;" x1="881" x2="881" y1="1330.6699" y2="1343.6699"/><line style="stroke:#181818;stroke-width:1.0;" x1="840" x2="881" y1="1343.6699" y2="1343.6699"/><polygon fill="#181818" points="850,1339.6699,840,1343.6699,850,1347.6699,846,1343.6699" style="stroke:#181818;stroke-width:1.0;"/><text fill="#000000" font-family="sans-serif" font-size="13" lengthAdjust="spacing" textLength="205" x="846" y="1325.9277">emit Reminted(to=Bob, amount);</text><polygon fill="#181818" points="426,1353.6699,416,1357.6699,426,1361.6699,422,1357.6699" style="stroke:#181818;stroke-width:1.0;"/><line style="stroke:#181818;stroke-width:1.0;stroke-dasharray:2.0,2.0;" x1="420" x2="838" y1="1357.6699" y2="1357.6699"/><rect fill="#EEEEEE" height="3" style="stroke:#EEEEEE;stroke-width:1.0;" width="1315" x="0" y="1386.3252"/><line style="stroke:#000000;stroke-width:1.0;" x1="0" x2="1315" y1="1386.3252" y2="1386.3252"/><line style="stroke:#000000;stroke-width:1.0;" x1="0" x2="1315" y1="1389.3252" y2="1389.3252"/><rect fill="#EEEEEE" height="23.3105" style="stroke:#000000;stroke-width:2.0;" width="173" x="571" y="1375.6699"/><text fill="#000000" font-family="sans-serif" font-size="13" font-weight="bold" lengthAdjust="spacing" textLength="155" x="577" y="1392.2383">Bob Unwraps ZWToken</text><polygon fill="#181818" points="827,1426.291,837,1430.291,827,1434.291,831,1430.291" style="stroke:#181818;stroke-width:1.0;"/><line style="stroke:#181818;stroke-width:1.0;" x1="493.5" x2="833" y1="1430.291" y2="1430.291"/><text fill="#000000" font-family="sans-serif" font-size="13" lengthAdjust="spacing" textLength="175" x="500.5" y="1425.5488">ZWToken.withdraw(amount)</text><line style="stroke:#181818;stroke-width:1.0;" x1="839" x2="881" y1="1459.6016" y2="1459.6016"/><line style="stroke:#181818;stroke-width:1.0;" x1="881" x2="881" y1="1459.6016" y2="1472.6016"/><line style="stroke:#181818;stroke-width:1.0;" x1="840" x2="881" y1="1472.6016" y2="1472.6016"/><polygon fill="#181818" points="850,1468.6016,840,1472.6016,850,1476.6016,846,1472.6016" style="stroke:#181818;stroke-width:1.0;"/><text fill="#000000" font-family="sans-serif" font-size="13" lengthAdjust="spacing" textLength="91" x="846" y="1454.8594">burn ZWToken</text><polygon fill="#181818" points="1230,1497.9121,1240,1501.9121,1230,1505.9121,1234,1501.9121" style="stroke:#181818;stroke-width:1.0;"/><line style="stroke:#181818;stroke-width:1.0;" x1="839" x2="1236" y1="1501.9121" y2="1501.9121"/><text fill="#000000" font-family="sans-serif" font-size="13" lengthAdjust="spacing" textLength="230" x="846" y="1497.1699">underlying.transfer(to=Bob, amount)</text><polygon fill="#181818" points="850,1511.9121,840,1515.9121,850,1519.9121,846,1515.9121" style="stroke:#181818;stroke-width:1.0;"/><line style="stroke:#181818;stroke-width:1.0;stroke-dasharray:2.0,2.0;" x1="844" x2="1241" y1="1515.9121" y2="1515.9121"/><line style="stroke:#181818;stroke-width:1.0;" x1="839" x2="881" y1="1545.2227" y2="1545.2227"/><line style="stroke:#181818;stroke-width:1.0;" x1="881" x2="881" y1="1545.2227" y2="1558.2227"/><line style="stroke:#181818;stroke-width:1.0;" x1="840" x2="881" y1="1558.2227" y2="1558.2227"/><polygon fill="#181818" points="850,1554.2227,840,1558.2227,850,1562.2227,846,1558.2227" style="stroke:#181818;stroke-width:1.0;"/><text fill="#000000" font-family="sans-serif" font-size="13" lengthAdjust="spacing" textLength="208" x="846" y="1540.4805">emit Withdrawn(to=Bob, amount)</text><polygon fill="#181818" points="504.5,1568.2227,494.5,1572.2227,504.5,1576.2227,500.5,1572.2227" style="stroke:#181818;stroke-width:1.0;"/><line style="stroke:#181818;stroke-width:1.0;stroke-dasharray:2.0,2.0;" x1="498.5" x2="838" y1="1572.2227" y2="1572.2227"/><!--SRC=[lLLDYzim4BtxLmmvUI79qXotJM5tItieXR2i2OH2KQnnB5QMZ2GdvDztBCiVSPpkdXeIIA8tR-Qz6OrPwhI1HobI_1Gn_sFcVwtkNr2oCvePCDi0LW7mfFTHoOmJgIYPSZ3RRL_r6ofuriePmlYGtVOIb2YEHfw5Ee17Ur0IHUjrI0zRmqhR789GJaFBkrv70RBu2WayGDLnBLbP6dt4U5p375YXA-Nksj0lYmMbwtbsMo8AKKkEfRR2nMqC7Lwd8bvbCpJVZIxYXcWEj_CIHvEp8VFv2jBLXhJ9W9I61WoGM0W7tvgoa7Vf9aIHqGCJdogZxBHppRS7-84A3NC8jNDiBn7s50ICSuFMGepBmn8II-VQek1QGSviVdVBkzQMU9AkBvb9rxcqA1WvGH_aaEg2j1QeN0Jq6dXGbRmkypR0c_JS7ISUp-C-O4xczXMWuhUDQrsni35QPq3lJIkeDXKUWpyPNO4Nh3jPpp8v_45X8_ioT6aUC41rCxW7F1BuMj0mF1IEalf3zJcTQhcG52ZXr-RrdPpeyZy7T5xW56dlJpSk56LmNmbveMS2THXC5NbNksHQbtgVkxKIBEn7bMu1BPRhWLqHTprPWazJ3oI4BHN2ndFQXCIUOmx36L6Lb28JQEfnMLCL5vUuvKbpJDzwxCMrPcPm0fMbdWsEZsX4TeRTpqR0pOKmJlx-OFrM540aXzp17e5DN-d_SQy-iEJgvyOuIJC5n3tI_hdjuk2Yrb8JTV9FYS62g_yUz_eaNCuDEyKJVVJE1E2_5tqyCGrNAztBs8Pyrpsigsiq_0K0]--></g></svg>