<?xml version="1.0" encoding="us-ascii" standalone="no"?><svg xmlns="http://www.w3.org/2000/svg" xmlns:xlink="http://www.w3.org/1999/xlink" contentStyleType="text/css" height="1054px" preserveAspectRatio="none" style="width:1065px;height:1054px;background:#FFFFFF;" version="1.1" viewBox="0 0 1065 1054" width="1065px" zoomAndPan="magnify"><defs/><g><line style="stroke:#181818;stroke-width:0.5;stroke-dasharray:5.0,5.0;" x1="24" x2="24" y1="81.4883" y2="973.9414"/><line style="stroke:#181818;stroke-width:0.5;stroke-dasharray:5.0,5.0;" x1="70" x2="70" y1="81.4883" y2="973.9414"/><line style="stroke:#181818;stroke-width:0.5;stroke-dasharray:5.0,5.0;" x1="399" x2="399" y1="81.4883" y2="973.9414"/><line style="stroke:#181818;stroke-width:0.5;stroke-dasharray:5.0,5.0;" x1="744" x2="744" y1="81.4883" y2="973.9414"/><line style="stroke:#181818;stroke-width:0.5;stroke-dasharray:5.0,5.0;" x1="888" x2="888" y1="81.4883" y2="973.9414"/><text fill="#000000" font-family="sans-serif" font-size="14" lengthAdjust="spacing" textLength="33" x="5" y="78.5352">Alice</text><ellipse cx="24.5" cy="13.5" fill="#E2E2F0" rx="8" ry="8" style="stroke:#181818;stroke-width:0.5;"/><path d="M24.5,21.5 L24.5,48.5 M11.5,29.5 L37.5,29.5 M24.5,48.5 L11.5,63.5 M24.5,48.5 L37.5,63.5 " fill="none" style="stroke:#181818;stroke-width:0.5;"/><text fill="#000000" font-family="sans-serif" font-size="14" lengthAdjust="spacing" textLength="33" x="5" y="986.4766">Alice</text><ellipse cx="24.5" cy="997.9297" fill="#E2E2F0" rx="8" ry="8" style="stroke:#181818;stroke-width:0.5;"/><path d="M24.5,1005.9297 L24.5,1032.9297 M11.5,1013.9297 L37.5,1013.9297 M24.5,1032.9297 L11.5,1047.9297 M24.5,1032.9297 L37.5,1047.9297 " fill="none" style="stroke:#181818;stroke-width:0.5;"/><text fill="#000000" font-family="sans-serif" font-size="14" lengthAdjust="spacing" textLength="26" x="54" y="78.5352">Bob</text><ellipse cx="70" cy="13.5" fill="#E2E2F0" rx="8" ry="8" style="stroke:#181818;stroke-width:0.5;"/><path d="M70,21.5 L70,48.5 M57,29.5 L83,29.5 M70,48.5 L57,63.5 M70,48.5 L83,63.5 " fill="none" style="stroke:#181818;stroke-width:0.5;"/><text fill="#000000" font-family="sans-serif" font-size="14" lengthAdjust="spacing" textLength="26" x="54" y="986.4766">Bob</text><ellipse cx="70" cy="997.9297" fill="#E2E2F0" rx="8" ry="8" style="stroke:#181818;stroke-width:0.5;"/><path d="M70,1005.9297 L70,1032.9297 M57,1013.9297 L83,1013.9297 M70,1032.9297 L57,1047.9297 M70,1032.9297 L83,1047.9297 " fill="none" style="stroke:#181818;stroke-width:0.5;"/><rect fill="#E2E2F0" height="30.4883" rx="2.5" ry="2.5" style="stroke:#181818;stroke-width:0.5;" width="140" x="329" y="50"/><text fill="#000000" font-family="sans-serif" font-size="14" lengthAdjust="spacing" textLength="126" x="336" y="70.5352">ZWToken Contract</text><rect fill="#E2E2F0" height="30.4883" rx="2.5" ry="2.5" style="stroke:#181818;stroke-width:0.5;" width="140" x="329" y="972.9414"/><text fill="#000000" font-family="sans-serif" font-size="14" lengthAdjust="spacing" textLength="126" x="336" y="993.4766">ZWToken Contract</text><rect fill="#E2E2F0" height="30.4883" rx="2.5" ry="2.5" style="stroke:#181818;stroke-width:0.5;" width="136" x="676" y="50"/><text fill="#000000" font-family="sans-serif" font-size="14" lengthAdjust="spacing" textLength="122" x="683" y="70.5352">Underlying Token</text><rect fill="#E2E2F0" height="30.4883" rx="2.5" ry="2.5" style="stroke:#181818;stroke-width:0.5;" width="136" x="676" y="972.9414"/><text fill="#000000" font-family="sans-serif" font-size="14" lengthAdjust="spacing" textLength="122" x="683" y="993.4766">Underlying Token</text><rect fill="#E2E2F0" height="30.4883" rx="2.5" ry="2.5" style="stroke:#181818;stroke-width:0.5;" width="133" x="822" y="50"/><text fill="#000000" font-family="sans-serif" font-size="14" lengthAdjust="spacing" textLength="119" x="829" y="70.5352">Frontend / Wallet</text><rect fill="#E2E2F0" height="30.4883" rx="2.5" ry="2.5" style="stroke:#181818;stroke-width:0.5;" width="133" x="822" y="972.9414"/><text fill="#000000" font-family="sans-serif" font-size="14" lengthAdjust="spacing" textLength="119" x="829" y="993.4766">Frontend / Wallet</text><polygon fill="#181818" points="732,108.7988,742,112.7988,732,116.7988,736,112.7988" style="stroke:#181818;stroke-width:1.0;"/><line style="stroke:#181818;stroke-width:1.0;" x1="24.5" x2="738" y1="112.7988" y2="112.7988"/><text fill="#000000" font-family="sans-serif" font-size="13" lengthAdjust="spacing" textLength="230" x="31.5" y="108.0566">approve(ZWToken Contract, amount)</text><polygon fill="#181818" points="387,138.1094,397,142.1094,387,146.1094,391,142.1094" style="stroke:#181818;stroke-width:1.0;"/><line style="stroke:#181818;stroke-width:1.0;" x1="24.5" x2="393" y1="142.1094" y2="142.1094"/><text fill="#000000" font-family="sans-serif" font-size="13" lengthAdjust="spacing" textLength="103" x="31.5" y="137.3672">deposit(amount)</text><polygon fill="#181818" points="732,167.4199,742,171.4199,732,175.4199,736,171.4199" style="stroke:#181818;stroke-width:1.0;"/><line style="stroke:#181818;stroke-width:1.0;" x1="399" x2="738" y1="171.4199" y2="171.4199"/><text fill="#000000" font-family="sans-serif" font-size="13" lengthAdjust="spacing" textLength="295" x="406" y="166.6777">transferFrom(Alice, ZWToken Contrac, amount)</text><polygon fill="#181818" points="35.5,196.7305,25.5,200.7305,35.5,204.7305,31.5,200.7305" style="stroke:#181818;stroke-width:1.0;"/><line style="stroke:#181818;stroke-width:1.0;" x1="29.5" x2="398" y1="200.7305" y2="200.7305"/><text fill="#000000" font-family="sans-serif" font-size="13" lengthAdjust="spacing" textLength="147" x="41.5" y="195.9883">mint ZWToken(amount)</text><line style="stroke:#181818;stroke-width:1.0;" x1="399" x2="441" y1="230.041" y2="230.041"/><line style="stroke:#181818;stroke-width:1.0;" x1="441" x2="441" y1="230.041" y2="243.041"/><line style="stroke:#181818;stroke-width:1.0;" x1="400" x2="441" y1="243.041" y2="243.041"/><polygon fill="#181818" points="410,239.041,400,243.041,410,247.041,406,243.041" style="stroke:#181818;stroke-width:1.0;"/><text fill="#000000" font-family="sans-serif" font-size="13" lengthAdjust="spacing" textLength="96" x="406" y="225.2988">emit Deposited</text><polygon fill="#181818" points="387,268.3516,397,272.3516,387,276.3516,391,272.3516" style="stroke:#181818;stroke-width:1.0;"/><line style="stroke:#181818;stroke-width:1.0;" x1="24.5" x2="393" y1="272.3516" y2="272.3516"/><text fill="#000000" font-family="sans-serif" font-size="13" lengthAdjust="spacing" textLength="266" x="31.5" y="267.6094">transfer(amount) to provable burn address</text><line style="stroke:#181818;stroke-width:1.0;" x1="399" x2="441" y1="301.6621" y2="301.6621"/><line style="stroke:#181818;stroke-width:1.0;" x1="441" x2="441" y1="301.6621" y2="314.6621"/><line style="stroke:#181818;stroke-width:1.0;" x1="400" x2="441" y1="314.6621" y2="314.6621"/><polygon fill="#181818" points="410,310.6621,400,314.6621,410,318.6621,406,314.6621" style="stroke:#181818;stroke-width:1.0;"/><text fill="#000000" font-family="sans-serif" font-size="13" lengthAdjust="spacing" textLength="127" x="406" y="296.9199">update commitment</text><line style="stroke:#181818;stroke-width:1.0;" x1="399" x2="441" y1="343.9727" y2="343.9727"/><line style="stroke:#181818;stroke-width:1.0;" x1="441" x2="441" y1="343.9727" y2="356.9727"/><line style="stroke:#181818;stroke-width:1.0;" x1="400" x2="441" y1="356.9727" y2="356.9727"/><polygon fill="#181818" points="410,352.9727,400,356.9727,410,360.9727,406,356.9727" style="stroke:#181818;stroke-width:1.0;"/><text fill="#000000" font-family="sans-serif" font-size="13" lengthAdjust="spacing" textLength="331" x="406" y="339.2305">emit CommitmentUpdated(commitment, to, amount)</text><polygon fill="#181818" points="410,382.2832,400,386.2832,410,390.2832,406,386.2832" style="stroke:#181818;stroke-width:1.0;"/><line style="stroke:#181818;stroke-width:1.0;" x1="404" x2="887.5" y1="386.2832" y2="386.2832"/><text fill="#000000" font-family="sans-serif" font-size="13" lengthAdjust="spacing" textLength="303" x="416" y="381.541">fetch commit data / listen CommitmentUpdated</text><line style="stroke:#181818;stroke-width:1.0;" x1="888.5" x2="930.5" y1="415.5938" y2="415.5938"/><line style="stroke:#181818;stroke-width:1.0;" x1="930.5" x2="930.5" y1="415.5938" y2="428.5938"/><line style="stroke:#181818;stroke-width:1.0;" x1="889.5" x2="930.5" y1="428.5938" y2="428.5938"/><polygon fill="#181818" points="899.5,424.5938,889.5,428.5938,899.5,432.5938,895.5,428.5938" style="stroke:#181818;stroke-width:1.0;"/><text fill="#000000" font-family="sans-serif" font-size="13" lengthAdjust="spacing" textLength="163" x="895.5" y="410.8516">rebuild commitment state</text><line style="stroke:#181818;stroke-width:1.0;" x1="888.5" x2="930.5" y1="457.9043" y2="457.9043"/><line style="stroke:#181818;stroke-width:1.0;" x1="930.5" x2="930.5" y1="457.9043" y2="470.9043"/><line style="stroke:#181818;stroke-width:1.0;" x1="889.5" x2="930.5" y1="470.9043" y2="470.9043"/><polygon fill="#181818" points="899.5,466.9043,889.5,470.9043,899.5,474.9043,895.5,470.9043" style="stroke:#181818;stroke-width:1.0;"/><text fill="#000000" font-family="sans-serif" font-size="13" lengthAdjust="spacing" textLength="159" x="895.5" y="453.1621">generate proof for remint</text><polygon fill="#181818" points="387,496.2148,397,500.2148,387,504.2148,391,500.2148" style="stroke:#181818;stroke-width:1.0;"/><line style="stroke:#181818;stroke-width:1.0;" x1="70" x2="393" y1="500.2148" y2="500.2148"/><text fill="#000000" font-family="sans-serif" font-size="13" lengthAdjust="spacing" textLength="305" x="77" y="495.4727">remint(proof, commitment, nullifier, to, amount)</text><line style="stroke:#181818;stroke-width:1.0;" x1="399" x2="441" y1="529.5254" y2="529.5254"/><line style="stroke:#181818;stroke-width:1.0;" x1="441" x2="441" y1="529.5254" y2="542.5254"/><line style="stroke:#181818;stroke-width:1.0;" x1="400" x2="441" y1="542.5254" y2="542.5254"/><polygon fill="#181818" points="410,538.5254,400,542.5254,410,546.5254,406,542.5254" style="stroke:#181818;stroke-width:1.0;"/><text fill="#000000" font-family="sans-serif" font-size="13" lengthAdjust="spacing" textLength="93" x="406" y="524.7832">verify ZK proof</text><line style="stroke:#181818;stroke-width:1.0;" x1="399" x2="441" y1="571.8359" y2="571.8359"/><line style="stroke:#181818;stroke-width:1.0;" x1="441" x2="441" y1="571.8359" y2="584.8359"/><line style="stroke:#181818;stroke-width:1.0;" x1="400" x2="441" y1="584.8359" y2="584.8359"/><polygon fill="#181818" points="410,580.8359,400,584.8359,410,588.8359,406,584.8359" style="stroke:#181818;stroke-width:1.0;"/><text fill="#000000" font-family="sans-serif" font-size="13" lengthAdjust="spacing" textLength="90" x="406" y="567.0938">check nullifier</text><line style="stroke:#181818;stroke-width:1.0;" x1="399" x2="441" y1="614.1465" y2="614.1465"/><line style="stroke:#181818;stroke-width:1.0;" x1="441" x2="441" y1="614.1465" y2="627.1465"/><line style="stroke:#181818;stroke-width:1.0;" x1="400" x2="441" y1="627.1465" y2="627.1465"/><polygon fill="#181818" points="410,623.1465,400,627.1465,410,631.1465,406,627.1465" style="stroke:#181818;stroke-width:1.0;"/><text fill="#000000" font-family="sans-serif" font-size="13" lengthAdjust="spacing" textLength="119" x="406" y="609.4043">mark nullifier used</text><line style="stroke:#181818;stroke-width:1.0;" x1="399" x2="441" y1="656.457" y2="656.457"/><line style="stroke:#181818;stroke-width:1.0;" x1="441" x2="441" y1="656.457" y2="669.457"/><line style="stroke:#181818;stroke-width:1.0;" x1="400" x2="441" y1="669.457" y2="669.457"/><polygon fill="#181818" points="410,665.457,400,669.457,410,673.457,406,669.457" style="stroke:#181818;stroke-width:1.0;"/><text fill="#000000" font-family="sans-serif" font-size="13" lengthAdjust="spacing" textLength="168" x="406" y="651.7148">mint ZWToken(to, amount)</text><line style="stroke:#181818;stroke-width:1.0;" x1="399" x2="441" y1="698.7676" y2="698.7676"/><line style="stroke:#181818;stroke-width:1.0;" x1="441" x2="441" y1="698.7676" y2="711.7676"/><line style="stroke:#181818;stroke-width:1.0;" x1="400" x2="441" y1="711.7676" y2="711.7676"/><polygon fill="#181818" points="410,707.7676,400,711.7676,410,715.7676,406,711.7676" style="stroke:#181818;stroke-width:1.0;"/><text fill="#000000" font-family="sans-serif" font-size="13" lengthAdjust="spacing" textLength="331" x="406" y="694.0254">emit CommitmentUpdated(commitment, to, amount)</text><polygon fill="#181818" points="81,737.0781,71,741.0781,81,745.0781,77,741.0781" style="stroke:#181818;stroke-width:1.0;"/><line style="stroke:#181818;stroke-width:1.0;" x1="75" x2="398" y1="741.0781" y2="741.0781"/><text fill="#000000" font-family="sans-serif" font-size="13" lengthAdjust="spacing" textLength="106" x="87" y="736.3359">receive ZWToken</text><line style="stroke:#181818;stroke-width:1.0;" x1="399" x2="441" y1="770.3887" y2="770.3887"/><line style="stroke:#181818;stroke-width:1.0;" x1="441" x2="441" y1="770.3887" y2="783.3887"/><line style="stroke:#181818;stroke-width:1.0;" x1="400" x2="441" y1="783.3887" y2="783.3887"/><polygon fill="#181818" points="410,779.3887,400,783.3887,410,787.3887,406,783.3887" style="stroke:#181818;stroke-width:1.0;"/><text fill="#000000" font-family="sans-serif" font-size="13" lengthAdjust="spacing" textLength="91" x="406" y="765.6465">emit Reminted</text><polygon fill="#181818" points="387,808.6992,397,812.6992,387,816.6992,391,812.6992" style="stroke:#181818;stroke-width:1.0;"/><line style="stroke:#181818;stroke-width:1.0;" x1="70" x2="393" y1="812.6992" y2="812.6992"/><text fill="#000000" font-family="sans-serif" font-size="13" lengthAdjust="spacing" textLength="113" x="77" y="807.957">withdraw(amount)</text><line style="stroke:#181818;stroke-width:1.0;" x1="399" x2="441" y1="842.0098" y2="842.0098"/><line style="stroke:#181818;stroke-width:1.0;" x1="441" x2="441" y1="842.0098" y2="855.0098"/><line style="stroke:#181818;stroke-width:1.0;" x1="400" x2="441" y1="855.0098" y2="855.0098"/><polygon fill="#181818" points="410,851.0098,400,855.0098,410,859.0098,406,855.0098" style="stroke:#181818;stroke-width:1.0;"/><text fill="#000000" font-family="sans-serif" font-size="13" lengthAdjust="spacing" textLength="91" x="406" y="837.2676">burn ZWToken</text><polygon fill="#181818" points="732,880.3203,742,884.3203,732,888.3203,736,884.3203" style="stroke:#181818;stroke-width:1.0;"/><line style="stroke:#181818;stroke-width:1.0;" x1="399" x2="738" y1="884.3203" y2="884.3203"/><text fill="#000000" font-family="sans-serif" font-size="13" lengthAdjust="spacing" textLength="159" x="406" y="879.5781">transfer(to=Bob, amount)</text><polygon fill="#181818" points="81,909.6309,71,913.6309,81,917.6309,77,913.6309" style="stroke:#181818;stroke-width:1.0;"/><line style="stroke:#181818;stroke-width:1.0;" x1="75" x2="398" y1="913.6309" y2="913.6309"/><text fill="#000000" font-family="sans-serif" font-size="13" lengthAdjust="spacing" textLength="115" x="87" y="908.8887">receive underlying</text><line style="stroke:#181818;stroke-width:1.0;" x1="399" x2="441" y1="942.9414" y2="942.9414"/><line style="stroke:#181818;stroke-width:1.0;" x1="441" x2="441" y1="942.9414" y2="955.9414"/><line style="stroke:#181818;stroke-width:1.0;" x1="400" x2="441" y1="955.9414" y2="955.9414"/><polygon fill="#181818" points="410,951.9414,400,955.9414,410,959.9414,406,955.9414" style="stroke:#181818;stroke-width:1.0;"/><text fill="#000000" font-family="sans-serif" font-size="13" lengthAdjust="spacing" textLength="98" x="406" y="938.1992">emit Withdrawn</text><!--SRC=[bLDBQuD04BxxAuQSB5Xw3xJGficbjr8HlAtkc2nPTsLtJSY_xxY-LjCMUf7WVC_9o4gd3RnAKMB4_EytNKGDCqwKec7AmIRFllGP5UoqSeOm6s0Mycm9IXL78sz27S6ZFIXTOWw6551nU8ACIOczqc4VHTuV7byWXIsmfZ7wWl7QDm5MwrQvXncUPuJds6WhN3nEwUMWH3HbApHaNCUUbC1ATHRjQRtq5cf1YGViIjcROYqSlFVEoADLfD5uP8BJq9LYXKGeMgE0SMxGsb2oRJXp2AMkIRj6vUxyTjCezLWUp-24FEOoqM4_KIjqvMcG1Q8nshyKrlabh0G77ZstOB1eXUH18B2EG27cY0fDbvhQwGegkX-3tUwYYEveYj2_YpqeWJ2qQgKKbK2pp1yqlw0HrGtoZzuZ79KdBC-pH3YgcGacq5hg5ex3l_SNut-kl6TshRk-9OeBZWvtgfz-7ztTX5kw2dVYXbr_kZT_D4kvyCAfmpD9_PscdRxHkq3POAs-0G00]--></g></svg>