<?xml version="1.0" encoding="us-ascii" standalone="no"?><svg xmlns="http://www.w3.org/2000/svg" xmlns:xlink="http://www.w3.org/1999/xlink" contentStyleType="text/css" height="1054px" preserveAspectRatio="none" style="width:959px;height:1054px;background:#FFFFFF;" version="1.1" viewBox="0 0 959 1054" width="959px" zoomAndPan="magnify"><defs/><g><line style="stroke:#181818;stroke-width:0.5;stroke-dasharray:5.0,5.0;" x1="29" x2="29" y1="81.4883" y2="973.9414"/><line style="stroke:#181818;stroke-width:0.5;stroke-dasharray:5.0,5.0;" x1="87" x2="87" y1="81.4883" y2="973.9414"/><line style="stroke:#181818;stroke-width:0.5;stroke-dasharray:5.0,5.0;" x1="478" x2="478" y1="81.4883" y2="973.9414"/><line style="stroke:#181818;stroke-width:0.5;stroke-dasharray:5.0,5.0;" x1="885" x2="885" y1="81.4883" y2="973.9414"/><text fill="#000000" font-family="sans-serif" font-size="14" lengthAdjust="spacing" textLength="42" x="5" y="78.5352">Alice1</text><ellipse cx="29" cy="13.5" fill="#E2E2F0" rx="8" ry="8" style="stroke:#181818;stroke-width:0.5;"/><path d="M29,21.5 L29,48.5 M16,29.5 L42,29.5 M29,48.5 L16,63.5 M29,48.5 L42,63.5 " fill="none" style="stroke:#181818;stroke-width:0.5;"/><text fill="#000000" font-family="sans-serif" font-size="14" lengthAdjust="spacing" textLength="42" x="5" y="986.4766">Alice1</text><ellipse cx="29" cy="997.9297" fill="#E2E2F0" rx="8" ry="8" style="stroke:#181818;stroke-width:0.5;"/><path d="M29,1005.9297 L29,1032.9297 M16,1013.9297 L42,1013.9297 M29,1032.9297 L16,1047.9297 M29,1032.9297 L42,1047.9297 " fill="none" style="stroke:#181818;stroke-width:0.5;"/><text fill="#000000" font-family="sans-serif" font-size="14" lengthAdjust="spacing" textLength="42" x="63" y="78.5352">Alice2</text><ellipse cx="87" cy="13.5" fill="#E2E2F0" rx="8" ry="8" style="stroke:#181818;stroke-width:0.5;"/><path d="M87,21.5 L87,48.5 M74,29.5 L100,29.5 M87,48.5 L74,63.5 M87,48.5 L100,63.5 " fill="none" style="stroke:#181818;stroke-width:0.5;"/><text fill="#000000" font-family="sans-serif" font-size="14" lengthAdjust="spacing" textLength="42" x="63" y="986.4766">Alice2</text><ellipse cx="87" cy="997.9297" fill="#E2E2F0" rx="8" ry="8" style="stroke:#181818;stroke-width:0.5;"/><path d="M87,1005.9297 L87,1032.9297 M74,1013.9297 L100,1013.9297 M87,1032.9297 L74,1047.9297 M87,1032.9297 L100,1047.9297 " fill="none" style="stroke:#181818;stroke-width:0.5;"/><rect fill="#E2E2F0" height="30.4883" rx="2.5" ry="2.5" style="stroke:#181818;stroke-width:0.5;" width="140" x="408" y="50"/><text fill="#000000" font-family="sans-serif" font-size="14" lengthAdjust="spacing" textLength="126" x="415" y="70.5352">ZWToken Contract</text><rect fill="#E2E2F0" height="30.4883" rx="2.5" ry="2.5" style="stroke:#181818;stroke-width:0.5;" width="140" x="408" y="972.9414"/><text fill="#000000" font-family="sans-serif" font-size="14" lengthAdjust="spacing" textLength="126" x="415" y="993.4766">ZWToken Contract</text><rect fill="#E2E2F0" height="30.4883" rx="2.5" ry="2.5" style="stroke:#181818;stroke-width:0.5;" width="136" x="817" y="50"/><text fill="#000000" font-family="sans-serif" font-size="14" lengthAdjust="spacing" textLength="122" x="824" y="70.5352">Underlying Token</text><rect fill="#E2E2F0" height="30.4883" rx="2.5" ry="2.5" style="stroke:#181818;stroke-width:0.5;" width="136" x="817" y="972.9414"/><text fill="#000000" font-family="sans-serif" font-size="14" lengthAdjust="spacing" textLength="122" x="824" y="993.4766">Underlying Token</text><polygon fill="#181818" points="873,108.7988,883,112.7988,873,116.7988,877,112.7988" style="stroke:#181818;stroke-width:1.0;"/><line style="stroke:#181818;stroke-width:1.0;" x1="29" x2="879" y1="112.7988" y2="112.7988"/><text fill="#000000" font-family="sans-serif" font-size="13" lengthAdjust="spacing" textLength="301" x="36" y="108.0566">underlying.approve(ZWToken Contract, amount)</text><polygon fill="#181818" points="466,138.1094,476,142.1094,466,146.1094,470,142.1094" style="stroke:#181818;stroke-width:1.0;"/><line style="stroke:#181818;stroke-width:1.0;" x1="29" x2="472" y1="142.1094" y2="142.1094"/><text fill="#000000" font-family="sans-serif" font-size="13" lengthAdjust="spacing" textLength="165" x="36" y="137.3672">ZWToken.deposit(amount)</text><polygon fill="#181818" points="873,167.4199,883,171.4199,873,175.4199,877,171.4199" style="stroke:#181818;stroke-width:1.0;"/><line style="stroke:#181818;stroke-width:1.0;" x1="478" x2="879" y1="171.4199" y2="171.4199"/><text fill="#000000" font-family="sans-serif" font-size="13" lengthAdjust="spacing" textLength="374" x="485" y="166.6777">underlying.transferFrom(Alice1, ZWToken Contrac, amount)</text><polygon fill="#181818" points="40,196.7305,30,200.7305,40,204.7305,36,200.7305" style="stroke:#181818;stroke-width:1.0;"/><line style="stroke:#181818;stroke-width:1.0;" x1="34" x2="477" y1="200.7305" y2="200.7305"/><text fill="#000000" font-family="sans-serif" font-size="13" lengthAdjust="spacing" textLength="147" x="46" y="195.9883">mint ZWToken(amount)</text><line style="stroke:#181818;stroke-width:1.0;" x1="478" x2="520" y1="230.041" y2="230.041"/><line style="stroke:#181818;stroke-width:1.0;" x1="520" x2="520" y1="230.041" y2="243.041"/><line style="stroke:#181818;stroke-width:1.0;" x1="479" x2="520" y1="243.041" y2="243.041"/><polygon fill="#181818" points="489,239.041,479,243.041,489,247.041,485,243.041" style="stroke:#181818;stroke-width:1.0;"/><text fill="#000000" font-family="sans-serif" font-size="13" lengthAdjust="spacing" textLength="96" x="485" y="225.2988">emit Deposited</text><polygon fill="#181818" points="466,268.3516,476,272.3516,466,276.3516,470,272.3516" style="stroke:#181818;stroke-width:1.0;"/><line style="stroke:#181818;stroke-width:1.0;" x1="29" x2="472" y1="272.3516" y2="272.3516"/><text fill="#000000" font-family="sans-serif" font-size="13" lengthAdjust="spacing" textLength="328" x="36" y="267.6094">ZWToken.transfer(amount) to provable burn address</text><line style="stroke:#181818;stroke-width:1.0;" x1="478" x2="520" y1="301.6621" y2="301.6621"/><line style="stroke:#181818;stroke-width:1.0;" x1="520" x2="520" y1="301.6621" y2="314.6621"/><line style="stroke:#181818;stroke-width:1.0;" x1="479" x2="520" y1="314.6621" y2="314.6621"/><polygon fill="#181818" points="489,310.6621,479,314.6621,489,318.6621,485,314.6621" style="stroke:#181818;stroke-width:1.0;"/><text fill="#000000" font-family="sans-serif" font-size="13" lengthAdjust="spacing" textLength="127" x="485" y="296.9199">update commitment</text><line style="stroke:#181818;stroke-width:1.0;" x1="478" x2="520" y1="343.9727" y2="343.9727"/><line style="stroke:#181818;stroke-width:1.0;" x1="520" x2="520" y1="343.9727" y2="356.9727"/><line style="stroke:#181818;stroke-width:1.0;" x1="479" x2="520" y1="356.9727" y2="356.9727"/><polygon fill="#181818" points="489,352.9727,479,356.9727,489,360.9727,485,356.9727" style="stroke:#181818;stroke-width:1.0;"/><text fill="#000000" font-family="sans-serif" font-size="13" lengthAdjust="spacing" textLength="393" x="485" y="339.2305">Optional: emit CommitmentUpdated(commitment, to, amount)</text><polygon fill="#181818" points="466,382.2832,476,386.2832,466,390.2832,470,386.2832" style="stroke:#181818;stroke-width:1.0;"/><line style="stroke:#181818;stroke-width:1.0;" x1="87" x2="472" y1="386.2832" y2="386.2832"/><text fill="#000000" font-family="sans-serif" font-size="13" lengthAdjust="spacing" textLength="303" x="94" y="381.541">fetch commit data / listen CommitmentUpdated</text><line style="stroke:#181818;stroke-width:1.0;" x1="87" x2="129" y1="415.5938" y2="415.5938"/><line style="stroke:#181818;stroke-width:1.0;" x1="129" x2="129" y1="415.5938" y2="428.5938"/><line style="stroke:#181818;stroke-width:1.0;" x1="88" x2="129" y1="428.5938" y2="428.5938"/><polygon fill="#181818" points="98,424.5938,88,428.5938,98,432.5938,94,428.5938" style="stroke:#181818;stroke-width:1.0;"/><text fill="#000000" font-family="sans-serif" font-size="13" lengthAdjust="spacing" textLength="163" x="94" y="410.8516">rebuild commitment state</text><line style="stroke:#181818;stroke-width:1.0;" x1="87" x2="129" y1="457.9043" y2="457.9043"/><line style="stroke:#181818;stroke-width:1.0;" x1="129" x2="129" y1="457.9043" y2="470.9043"/><line style="stroke:#181818;stroke-width:1.0;" x1="88" x2="129" y1="470.9043" y2="470.9043"/><polygon fill="#181818" points="98,466.9043,88,470.9043,98,474.9043,94,470.9043" style="stroke:#181818;stroke-width:1.0;"/><text fill="#000000" font-family="sans-serif" font-size="13" lengthAdjust="spacing" textLength="159" x="94" y="453.1621">generate proof for remint</text><polygon fill="#181818" points="466,496.2148,476,500.2148,466,504.2148,470,500.2148" style="stroke:#181818;stroke-width:1.0;"/><line style="stroke:#181818;stroke-width:1.0;" x1="87" x2="472" y1="500.2148" y2="500.2148"/><text fill="#000000" font-family="sans-serif" font-size="13" lengthAdjust="spacing" textLength="367" x="94" y="495.4727">ZWToken.remint(proof, commitment, nullifier, to, amount)</text><line style="stroke:#181818;stroke-width:1.0;" x1="478" x2="520" y1="529.5254" y2="529.5254"/><line style="stroke:#181818;stroke-width:1.0;" x1="520" x2="520" y1="529.5254" y2="542.5254"/><line style="stroke:#181818;stroke-width:1.0;" x1="479" x2="520" y1="542.5254" y2="542.5254"/><polygon fill="#181818" points="489,538.5254,479,542.5254,489,546.5254,485,542.5254" style="stroke:#181818;stroke-width:1.0;"/><text fill="#000000" font-family="sans-serif" font-size="13" lengthAdjust="spacing" textLength="93" x="485" y="524.7832">verify ZK proof</text><line style="stroke:#181818;stroke-width:1.0;" x1="478" x2="520" y1="571.8359" y2="571.8359"/><line style="stroke:#181818;stroke-width:1.0;" x1="520" x2="520" y1="571.8359" y2="584.8359"/><line style="stroke:#181818;stroke-width:1.0;" x1="479" x2="520" y1="584.8359" y2="584.8359"/><polygon fill="#181818" points="489,580.8359,479,584.8359,489,588.8359,485,584.8359" style="stroke:#181818;stroke-width:1.0;"/><text fill="#000000" font-family="sans-serif" font-size="13" lengthAdjust="spacing" textLength="90" x="485" y="567.0938">check nullifier</text><line style="stroke:#181818;stroke-width:1.0;" x1="478" x2="520" y1="614.1465" y2="614.1465"/><line style="stroke:#181818;stroke-width:1.0;" x1="520" x2="520" y1="614.1465" y2="627.1465"/><line style="stroke:#181818;stroke-width:1.0;" x1="479" x2="520" y1="627.1465" y2="627.1465"/><polygon fill="#181818" points="489,623.1465,479,627.1465,489,631.1465,485,627.1465" style="stroke:#181818;stroke-width:1.0;"/><text fill="#000000" font-family="sans-serif" font-size="13" lengthAdjust="spacing" textLength="119" x="485" y="609.4043">mark nullifier used</text><line style="stroke:#181818;stroke-width:1.0;" x1="478" x2="520" y1="656.457" y2="656.457"/><line style="stroke:#181818;stroke-width:1.0;" x1="520" x2="520" y1="656.457" y2="669.457"/><line style="stroke:#181818;stroke-width:1.0;" x1="479" x2="520" y1="669.457" y2="669.457"/><polygon fill="#181818" points="489,665.457,479,669.457,489,673.457,485,669.457" style="stroke:#181818;stroke-width:1.0;"/><text fill="#000000" font-family="sans-serif" font-size="13" lengthAdjust="spacing" textLength="168" x="485" y="651.7148">mint ZWToken(to, amount)</text><line style="stroke:#181818;stroke-width:1.0;" x1="478" x2="520" y1="698.7676" y2="698.7676"/><line style="stroke:#181818;stroke-width:1.0;" x1="520" x2="520" y1="698.7676" y2="711.7676"/><line style="stroke:#181818;stroke-width:1.0;" x1="479" x2="520" y1="711.7676" y2="711.7676"/><polygon fill="#181818" points="489,707.7676,479,711.7676,489,715.7676,485,711.7676" style="stroke:#181818;stroke-width:1.0;"/><text fill="#000000" font-family="sans-serif" font-size="13" lengthAdjust="spacing" textLength="331" x="485" y="694.0254">emit CommitmentUpdated(commitment, to, amount)</text><polygon fill="#181818" points="98,737.0781,88,741.0781,98,745.0781,94,741.0781" style="stroke:#181818;stroke-width:1.0;"/><line style="stroke:#181818;stroke-width:1.0;" x1="92" x2="477" y1="741.0781" y2="741.0781"/><text fill="#000000" font-family="sans-serif" font-size="13" lengthAdjust="spacing" textLength="106" x="104" y="736.3359">receive ZWToken</text><line style="stroke:#181818;stroke-width:1.0;" x1="478" x2="520" y1="770.3887" y2="770.3887"/><line style="stroke:#181818;stroke-width:1.0;" x1="520" x2="520" y1="770.3887" y2="783.3887"/><line style="stroke:#181818;stroke-width:1.0;" x1="479" x2="520" y1="783.3887" y2="783.3887"/><polygon fill="#181818" points="489,779.3887,479,783.3887,489,787.3887,485,783.3887" style="stroke:#181818;stroke-width:1.0;"/><text fill="#000000" font-family="sans-serif" font-size="13" lengthAdjust="spacing" textLength="91" x="485" y="765.6465">emit Reminted</text><polygon fill="#181818" points="466,808.6992,476,812.6992,466,816.6992,470,812.6992" style="stroke:#181818;stroke-width:1.0;"/><line style="stroke:#181818;stroke-width:1.0;" x1="87" x2="472" y1="812.6992" y2="812.6992"/><text fill="#000000" font-family="sans-serif" font-size="13" lengthAdjust="spacing" textLength="175" x="94" y="807.957">ZWToken.withdraw(amount)</text><line style="stroke:#181818;stroke-width:1.0;" x1="478" x2="520" y1="842.0098" y2="842.0098"/><line style="stroke:#181818;stroke-width:1.0;" x1="520" x2="520" y1="842.0098" y2="855.0098"/><line style="stroke:#181818;stroke-width:1.0;" x1="479" x2="520" y1="855.0098" y2="855.0098"/><polygon fill="#181818" points="489,851.0098,479,855.0098,489,859.0098,485,855.0098" style="stroke:#181818;stroke-width:1.0;"/><text fill="#000000" font-family="sans-serif" font-size="13" lengthAdjust="spacing" textLength="91" x="485" y="837.2676">burn ZWToken</text><polygon fill="#181818" points="873,880.3203,883,884.3203,873,888.3203,877,884.3203" style="stroke:#181818;stroke-width:1.0;"/><line style="stroke:#181818;stroke-width:1.0;" x1="478" x2="879" y1="884.3203" y2="884.3203"/><text fill="#000000" font-family="sans-serif" font-size="13" lengthAdjust="spacing" textLength="246" x="485" y="879.5781">underlying.transfer(to=Alice2, amount)</text><polygon fill="#181818" points="98,909.6309,88,913.6309,98,917.6309,94,913.6309" style="stroke:#181818;stroke-width:1.0;"/><line style="stroke:#181818;stroke-width:1.0;" x1="92" x2="477" y1="913.6309" y2="913.6309"/><text fill="#000000" font-family="sans-serif" font-size="13" lengthAdjust="spacing" textLength="115" x="104" y="908.8887">receive underlying</text><line style="stroke:#181818;stroke-width:1.0;" x1="478" x2="520" y1="942.9414" y2="942.9414"/><line style="stroke:#181818;stroke-width:1.0;" x1="520" x2="520" y1="942.9414" y2="955.9414"/><line style="stroke:#181818;stroke-width:1.0;" x1="479" x2="520" y1="955.9414" y2="955.9414"/><polygon fill="#181818" points="489,951.9414,479,955.9414,489,959.9414,485,955.9414" style="stroke:#181818;stroke-width:1.0;"/><text fill="#000000" font-family="sans-serif" font-size="13" lengthAdjust="spacing" textLength="98" x="485" y="938.1992">emit Withdrawn</text><!--SRC=[bLCxQyCm4DxzAuvCBhWfpHXeeQHqwL0eDGPlYdHEH6J9I792_dqLoG_5JYZTREwxx-KpeLPfU1ESudD2nfTLqX1jEUKDaHOMPV6Z3YXXewJL3hO0Og0iha6vPAZ5cSiTUBG7vKaIsE7n5N9OGpkWbgHfj3fYEcNFWDIgbVOXMYqBjzi1bmmRPRXDUvWRpjaTbJGLwW-jwZGGPJ2H6fK2HQUtXfgxH1ru8kETOCqjl0SRo99xHdiFFGLO1PVCP2iGjgsMG1ZJQ4pCtJQCM0IgQYTIexJnyAknN4aYEWkR0PJxBPQEQvbJ6mC6Ywk1g49Bzvq8k5K2Jo2uiRwS2McqspsjGUEsvO95Di5O1xw5tQ54VSdaigiAAdTb6YyLprprnOLnwl4Pn9baAmIlEEhhU555HzIyEaFv6UJY4TqZFOmKyQWcEff0QrpiU1mVn1tXVtwHwEH2eHJv4NkH6V6thsGujdbd9sxtJ9FJhNlrjtRDVETtSU5UWi2VJiVjcTcYyo9_0G00]--></g></svg>